<?xml version="1.0" ?><svg height="32" id="svg2" version="1.1" viewBox="0 0 32 32" width="32" xml:space="preserve" xmlns="http://www.w3.org/2000/svg" xmlns:cc="http://creativecommons.org/ns#" xmlns:dc="http://purl.org/dc/elements/1.1/" xmlns:inkscape="http://www.inkscape.org/namespaces/inkscape" xmlns:rdf="http://www.w3.org/1999/02/22-rdf-syntax-ns#" xmlns:sodipodi="http://sodipodi.sourceforge.net/DTD/sodipodi-0.dtd" xmlns:svg="http://www.w3.org/2000/svg"><defs id="defs6"/><g id="g10" transform="matrix(1.3333333,0,0,-1.3333333,0,32)"><path d="m 8.0926596,15.429785 8.2762924,-0.009 c 0.29522,-3.3e-4 0.503205,-0.40222 0.532917,-0.89985 l 0.414495,-6.9418698 c 0.02971,-0.49763 -0.237696,-0.89984 -0.532938,-0.89984 H 7.7583084 c -0.2952399,0 -0.5570339,0.40191 -0.5329142,0.89985 l 0.3343464,6.9000098 c 0.024134,0.49793 0.2376803,0.95085 0.532919,0.95053 z" id="path243" style="opacity:1;fill:none;fill-opacity:1;fill-rule:nonzero;stroke:#333333;stroke-width:0.77409285;stroke-linecap:round;stroke-linejoin:round;stroke-miterlimit:4;stroke-dasharray:none;stroke-dashoffset:0;stroke-opacity:1;paint-order:markers fill stroke"/><path d="m 14.876087,15.94637 a 2.6054041,2.6942251 0 0 1 -1.306789,2.335703 2.6054041,2.6942251 0 0 1 -2.609479,-0.0073 2.6054041,2.6942251 0 0 1 -1.2945014,-2.343008" id="path245" style="opacity:1;fill:none;fill-opacity:1;fill-rule:nonzero;stroke:#333333;stroke-width:0.77409285;stroke-linecap:round;stroke-linejoin:round;stroke-miterlimit:4;stroke-dasharray:none;stroke-dashoffset:0;stroke-opacity:1;paint-order:markers fill stroke"/></g></svg>