<?xml version="1.0" encoding="UTF-8" standalone="no" ?>
<!DOCTYPE svg PUBLIC "-//W3C//DTD SVG 1.1//EN" "http://www.w3.org/Graphics/SVG/1.1/DTD/svg11.dtd">
<svg xmlns="http://www.w3.org/2000/svg" xmlns:xlink="http://www.w3.org/1999/xlink" version="1.1" width="500" height="500" viewBox="0 0 500 500" xml:space="preserve">
<desc>Created with Fabric.js 4.6.0</desc>
<defs>
</defs>
<g transform="matrix(1 0 0 1 249.99 1280.46)" id="BkJ7QEYo8xDUwBYdjAkCF"  >
<path style="stroke: none; stroke-width: 1; stroke-dasharray: none; stroke-linecap: butt; stroke-dashoffset: 0; stroke-linejoin: miter; stroke-miterlimit: 4; fill: rgb(255,255,255); fill-rule: nonzero; opacity: 1;" vector-effect="non-scaling-stroke"  transform=" translate(-10.99, -1041.46)" d="M 11.906 1041.46 L 12.896 1040.47 C 12.959000000000001 1040.4080000000001 12.99 1040.3310000000001 12.99 1040.241 C 12.99 1040.151 12.959 1040.075 12.896 1040.012 L 12.438 1039.5539999999999 C 12.375 1039.492 12.299000000000001 1039.4599999999998 12.209000000000001 1039.4599999999998 C 12.119000000000002 1039.4599999999998 12.043000000000001 1039.4909999999998 11.980000000000002 1039.5539999999999 L 10.990000000000002 1040.5439999999999 L 10.000000000000002 1039.5539999999999 C 9.937000000000001 1039.492 9.861000000000002 1039.4599999999998 9.771000000000003 1039.4599999999998 C 9.681000000000003 1039.4599999999998 9.605000000000002 1039.4909999999998 9.542000000000003 1039.5539999999999 L 9.084000000000003 1040.012 C 9.021000000000003 1040.075 8.990000000000004 1040.1509999999998 8.990000000000004 1040.241 C 8.990000000000004 1040.331 9.021000000000004 1040.407 9.084000000000003 1040.47 L 10.074000000000003 1041.46 L 9.084000000000003 1042.45 C 9.021000000000003 1042.512 8.990000000000004 1042.589 8.990000000000004 1042.679 C 8.990000000000004 1042.769 9.021000000000004 1042.845 9.084000000000003 1042.9080000000001 L 9.542000000000003 1043.3660000000002 C 9.605000000000004 1043.4290000000003 9.681000000000003 1043.4600000000003 9.771000000000003 1043.4600000000003 C 9.861000000000002 1043.4600000000003 9.937000000000003 1043.4290000000003 10.000000000000002 1043.3660000000002 L 10.990000000000002 1042.3760000000002 L 11.980000000000002 1043.3660000000002 C 12.043000000000003 1043.4290000000003 12.119000000000002 1043.4600000000003 12.209000000000001 1043.4600000000003 C 12.299000000000001 1043.4600000000003 12.375000000000002 1043.4290000000003 12.438 1043.3660000000002 L 12.896 1042.9080000000001 C 12.959000000000001 1042.8460000000002 12.99 1042.7690000000002 12.99 1042.679 C 12.99 1042.5890000000002 12.959 1042.5130000000001 12.896 1042.45 L 11.906 1041.46" stroke-linecap="round" />
</g>
<g transform="matrix(62.07 0 0 62.07 250.1 250.1)" id="ZZidnzQsDfmZ-v6l7f8i1"  >
<path style="stroke: none; stroke-width: 1; stroke-dasharray: none; stroke-linecap: butt; stroke-dashoffset: 0; stroke-linejoin: miter; stroke-miterlimit: 4; fill: rgb(4,170,109); fill-rule: nonzero; opacity: 1;" vector-effect="non-scaling-stroke"  transform=" translate(0, 0)" d="M 0 -4 C -2.216 -4 -4 -2.216 -4 0 C -4 2.216 -2.216 4 0 4 C 2.216 4 4 2.216 4 0 C 4 -2.216 2.216 -4 0 -4" stroke-linecap="round" />
</g>
<g transform="matrix(0.6 0 0 0.6 249.99 250.1)" id="u9nuuBfL0KLBBTTqnNpd4"  >
<path style="stroke: none; stroke-width: 1; stroke-dasharray: none; stroke-linecap: butt; stroke-dashoffset: 0; stroke-linejoin: miter; stroke-miterlimit: 4; fill: rgb(255,255,255); fill-rule: nonzero; opacity: 1;" vector-effect="non-scaling-stroke"  transform=" translate(-256, -256)" d="M 326.3 410.7 C 326.3 449.5 294.8 481 256 481 C 217.2 481 185.7 449.5 185.7 410.7 C 185.7 371.9 217.2 340.4 256 340.4 C 294.8 340.4 326.3 371.9 326.3 410.7 z M 193.8 53.1 L 205.8 292.2 C 206.4 303.4 215.60000000000002 312.2 226.9 312.2 L 285.2 312.2 C 296.4 312.2 305.7 303.4 306.3 292.2 L 318.3 53.099999999999994 C 318.90000000000003 41.099999999999994 309.3 30.999999999999993 297.2 30.999999999999993 L 215 30.999999999999993 C 202.8 31 193.2 41.1 193.8 53.1 z" stroke-linecap="round" />
</g>
</svg>